<svg id="Capa_1" data-name="Capa 1" xmlns="http://www.w3.org/2000/svg" viewBox="0 0 359.4 359.45"><title>payment</title><path d="M381.73,59.85a7.15,7.15,0,0,0,.23-1.27c-.69-10.41,2.46-11,11.27-10.75,6,.2,12,0,18,.05,4.53,0,6.71,2.14,6.72,6.6q0,65.31,0,130.62c0,4.26-2.2,6.45-6.44,6.48-7.12.06-14.23,0-21.34,0-6.33,0-8-1.62-8.13-7.83,0-.6-.08-1.21-.14-2.2-1.05.66-1.83,1.21-2.65,1.66-10,5.5-20,11.11-30.12,16.39-2.14,1.11-3.14,1.95-3.11,4.53.16,13.35.08,26.7.07,40,0,5.24-2,7.29-7.16,7.29H113.52c-5,0-7.06-2.07-7.06-7q0-55.75,0-111.53c0-5.22,2-7.21,7.24-7.21q44.17,0,88.34,0a7.87,7.87,0,0,0,6.2-2.52c16.51-16.65,33.2-33.14,49.68-49.83,9.07-9.18,19.74-13.76,32.76-13.65,28.94.23,57.89.07,86.84.07Zm-158,65.46c.35.18.55.37.75.37,9.35,0,18.77-.62,28,.24s15.92-1.85,21.6-9c3.77-4.76,8.48-8.79,12.88-13,2.9-2.81,6.48-2.81,9-.26,2.33,2.4,2.23,5.9-.3,8.72-.75.83-1.57,1.6-2.37,2.39q-18.92,18.93-37.84,37.84c-5.51,5.53-6,12.18-1.36,16.82,3.63,3.62,11.2,4.81,16.89-1.52,4.91-5.47,10.35-10.46,15.56-15.67,9.7-9.7,19.43-19.38,29.09-29.12,2.42-2.45,5.2-4,8.32-2.1,8.53,5.18,16.8,5.23,25.32,0a5.78,5.78,0,0,1,8.07,2.38,5.87,5.87,0,0,1-2.26,8.1,23.07,23.07,0,0,1-6,2.91c-2.64.71-3,2.18-3,4.6.1,15.09.05,30.19.06,45.28,0,1,.13,2.09.2,3.19,9.09-2.71,23.12-11.3,33.32-20.09a6.4,6.4,0,0,0,2.48-5.4C382,133.1,382,104.29,382,75.47V71.86c-31.79,0-63-.09-94.17.06a25.57,25.57,0,0,0-18.31,7.34C254.18,94.45,239.05,109.84,223.68,125.31Zm110.19,114v-102c-3.37-.94-6.45-2-9.61-2.58a4.81,4.81,0,0,0-3.75.75c-5.34,5.07-10.49,10.34-15.68,15.56a3.82,3.82,0,0,0-1.21,1.78c-1,7.07,4.68,13.9,12.21,14.78,4.43.52,6.22,2.39,6.24,6.74q.06,14.22,0,28.44c0,4.38-1.81,6.27-6.19,6.77-6.93.79-11,4.86-11.76,11.85-.49,4.31-2.42,6.09-6.86,6.1H155.39c-4.66,0-6.49-1.7-7-6.32-.8-6.73-4.9-10.84-11.59-11.62-4.64-.54-6.34-2.36-6.35-7q0-13.84,0-27.7c0-4.94,1.58-6.69,6.46-7.28,6.37-.77,10.53-4.76,11.44-11,.84-5.76,2.2-7,7.93-7q41.17,0,82.35,0c1.21,0,2.9.21,3.57-.47,3.5-3.55,6.75-7.36,10.21-11.21H118.62V239.35Zm-40.93-77.17c-5.61,5.85-10.44,11.4-15.8,16.38a22.9,22.9,0,0,1-37.65-10.86c-.52-1.89-.71-3.86-1-5.65-.33-.16-.44-.25-.55-.25q-38.17-.08-76.34-.09a2.83,2.83,0,0,0-2.22,1.29c-2.94,8.22-8.73,13.42-16.89,16.05v19.17c7.23,2.22,12.95,6.51,15.76,13.67,1.24,3.15,2.89,3.76,6,3.75q62.15-.16,124.27-.07h4.22c2.76-8.85,8.52-14.61,17.27-17.34V179C302,176.4,296.29,171.37,292.94,162.18Zm112.75,17.28V60.15H394.16V179.46Z" transform="translate(-58.52 -47.78)"/><path d="M106.44,391.92c0,3.43,0,6.16,0,8.89-.09,4.07-2.21,6.35-6.18,6.37q-17.77.1-35.56,0c-4.07,0-6.14-2.38-6.15-6.77,0-13.6,0-27.19,0-40.79V271.29c0-6,1.82-7.8,7.77-7.81q16.47,0,32.94,0c5.19,0,7.16,2,7.2,7.25,0,3.25,0,6.49.06,9.73a.88.88,0,0,0,.15.44c9.31,1.54,18.66,2.42,27.61,4.77,9.58,2.51,18.89,6.15,28.11,9.8,6.12,2.42,12.18,4.06,18.81,4,18-.15,35.94-.07,53.91-.05,12.21,0,21.61,7.71,24.19,19.73.18.84.48,1.65.79,2.7l47.39-20.54c11.42-4.94,22.79-10,34.29-14.75a20.43,20.43,0,0,1,24.36,6.83,19.82,19.82,0,0,1-.84,24.88,25.27,25.27,0,0,1-6.71,5.24q-65.64,36.86-131.36,73.55a32.17,32.17,0,0,1-19.07,4.06c-20.72-1.88-41.44-3.83-62.17-5.71C133,394.23,119.94,393.11,106.44,391.92Zm.2-98.81v86.52l39.61,3.64c18.36,1.68,36.76,3.09,55.09,5.14,9.1,1,17.14,0,25.33-4.77,25.09-14.59,50.58-28.47,75.92-42.63q25.28-14.13,50.53-28.28c5.61-3.15,6.53-9.44,2-13.33-3.07-2.64-6.43-2.74-10.11-1.15q-43.8,19-87.64,38.05a12.63,12.63,0,0,0-3.7,3c-4.78,5-10.45,8-17.47,8.08-6.61.06-13.23.07-19.84.07-14.72,0-29.45,0-44.17,0-5.22,0-8.28-4-6.44-8.3,1.3-3,3.91-3.77,7.05-3.76q30.88.09,61.77,0c7.7,0,12.93-4.9,12.9-12,0-6.88-5.22-11.9-12.61-11.93-17.72-.06-35.44-.19-53.16.07a58.08,58.08,0,0,1-24.27-5,156.53,156.53,0,0,0-22.75-8.23C125.64,296,116.26,294.84,106.64,293.11ZM70.76,275.62V394.94H94.28V275.62Z" transform="translate(-58.52 -47.78)"/></svg>